<mxfile host="app.diagrams.net" modified="2023-10-06T11:01:50.546Z" agent="Mozilla/5.0 (Windows NT 10.0; Win64; x64) AppleWebKit/537.36 (KHTML, like Gecko) Chrome/117.0.0.0 Safari/537.36 Edg/117.0.2045.47" etag="8IW8Tbqj2rpr2QQRgyhd" version="21.7.4" type="github">
  <diagram name="第 1 页" id="NPO2A7HK61cdXXj-eTh_">
    <mxGraphModel dx="1024" dy="523" grid="1" gridSize="10" guides="1" tooltips="1" connect="1" arrows="1" fold="1" page="1" pageScale="1" pageWidth="1169" pageHeight="827" math="0" shadow="0">
      <root>
        <mxCell id="0" />
        <mxCell id="1" parent="0" />
        <mxCell id="U0oxnOfSBaumcdSujKbc-2" value="" style="shape=image;verticalLabelPosition=bottom;labelBackgroundColor=default;verticalAlign=top;aspect=fixed;imageAspect=0;image=data:image/png,iVBORw0KGgoAAAANSUhEUgAAAOsAAABeCAYAAADCDeMTAAAgAElEQVR4AeydBZhW1fr2TUTEQlS6O4acIQcYurtDursbJAxQEVExEAEBUbEQBQnpLlFEBRSxlRKkQb2/6/fseZjNHAQ8x6PH/zfvda137Vi71l73evrZVynhl9ADCT3wj+iBq/4Rd5lwkwk9kNADSgBrwiBI6IF/SA8kgPUf8qISbjOhBxLAmjAGEnrgH9IDCWD9h7yohNtM6IEEsCaMgYQe+If0QAJY/yEvKuE2E3ogAawJYyChB/4hPZAA1n/Ii0q4zYQeSABrwhhI6IF/SA8kgPUf8qISbjOhBxLAmjAGEnrgH9IDCWD9h7yohNtM6IEEsCaMgYQe+If0QAJY/4de1G+//XbB3bD+66+/XrCNFd/Gfj+G+pdffrHi28IHcsy5c+dsv2/34/18vp3azxd/H+t+fm/jx/k1fL+vc1/+Yxsl4ffHeyABrH+8z/6yIxj0PvC5KMs+2MO1t/Hab9Db+Dr7vfg+X6cGVACafX49trPugAtPCH4Mtf/CbcPnCO/38/u2hPrKeiABrFfWT39Jq/CgD1/Qt1Mz0B0QvkzNPi/h7b4cfx+gY1v452CNv492fo0wmDn2987v573cfm+XUF++BxLAevk++staxAePX9i3M/AdLGwLF/Y51aNm3fc7YLwN232bHxNuH97Psv9YvhSQ45/Lr+f37NcMn9PPnVBfvgcSwHr5PvpbWjCgw4OagX7mzBmdOnXKageX35wDIf5238+5wvtYP3v2rE6ePGmFc7Pffyyz34Hm9+P35OfzY1gHrLT34+IDm3P7cX4ev15CffkeSADr5fvob2nhg9+p1enTp3X8+HEdOXLEys8//2zABRi0cdD83s2y39uFgeLL1N7GrwnwwseE2zoo2f9Hf1zncvf7R8/5/0P7BLD+j75lB48PbMDhgD106JB++OEH7du3T7t27dIHH3ygjRs3atmyZZo/f75efvllzZkzR2+99ZYWLFigFStW6P3339dnn32mb7/9Vj/++KN++uknO58D8HLdQLswMP3+/LjwecKg9/un9jbUvuzHJ9SX74EEsF6+j/6yFpcawOxjwANaWOFjx47pwIEDBj5Au3v3bn344YfasGGDli9frkWLFmnhwoWaN2+eXnvtNc2dO9dAPHv2bM2YMcPKrFmzbPvbb7+td955R++++66WLl1q4F6zZo02b96sjz76SJ9//rlNDrDMZ8+e+RegnTlzWkePHrV74v6u5HepZ72S4/9/bJMA1v+htw4Ywz8GtJfw9kst0x4KCLCgvl988YW2b99uAH7jjTcEQJ977jlNmDBBI0eO1MCBAzV48GD169dPvXv3Vp8+fdS/f38NHTpUo0eP1iOPPKJnnnlGL730khYvXqwlS5Zq1arV2rZtm3bu/Fjvv7/dQP7qq68J0K9du04ffPChduzYod2792jfvi/1zTff6Pvvf9BPPx3RmTNnL3X75/f5c/+R+vzB/0cXEsD6P/piGaSAN77M6NQ1/m17+/D2S1E5KOHHH39sFPiFF14wQD766KO6//77DcSDBg1S9+7d1aZNGzVr1kyNGjVS3br1Vbt2XTVs2ETt2nVQt2491Lp1W1WoUEklS5ZW1ao11KJFS7Vq1UatWrZR585dNWDAII0efZ8mTXpCb7wxTx999ImBFgoNW49iKyhnTTGFDH727IWyMs8cLvSJ90t4e/jZ/57lOM15cP346//ZXf2pYGXAJPz+WA8AKAae/8KUJLyNQXmp/o1/HOs+qC9Wc12AAWBOnDhhgDl8+LB27txp7PO0adP02GOPadSoUerRo4fatm2r9u07qmmTe9SmdQf17zdYgwcNV5PGLVSieGkVyB9pJSqyuEqWKK2cOfLYesECUcqbp4AKFIhU2ZgKGjRwmKZOnaZXX31V7767WGvWrNWmTVu0bdt2bd/+oT788CPt2rVHBw4c0tmzQb/88kvcuOK+T5xAg31acdvjOJAweOP3l/cR/Rruk0u1Y9+vv2KT5l7gfJg4cBw5d8E2tp89e1rnzp053471uOPinsHfK7XfU/x7CLfx5T8VrH7ShPrCHoj/IlhnsDgAw/tZ9sJZWPYBGL+dX8Xbh/f7sX68134uv7afw2vY5/379+vrr7/WV199ZWXv3r367LM92rNnj9as3qhF7y7VgncW6bVX39KkiZPVp/cA3dOijSpXqq4iUSWsZMuaS/nzFbblQgWLKHeufCpUsKgqVqimVq3aqnuPnkade/TopT59+hkFHjhwiAYPHqqRI0dpwoSJevrpZzVr1otaunSZ1q/faMo0lGtxIPW7vnjNMzoovW+oATy1Fz+a9Yv1y2+/AdI4sALA335DNg9A/MsvsPZMpheCOmjD9gDc4etwrT/6SwDrH+2xf6N9/BfDuoPVTxe0CQaQb/P6YgPI94Xri12HbeHi5/JtrENdobIsX+537uyvOnr0uPb/eEiff/al1q7ZqDffeFsTH33CKG50yRgDaNYsOUXJF1FIxYpGq3SpcqpZo66qVK6hOrXrq0njZqpRo5ax1nXq1BMFNrt+/YZq1KiJsdJt27ZXly7dNHz4SAPw+PEP6bnnntdrr72hBQve1ZIl72nlyjXasmWrPv10l8nGKN2YcP6dn/eNHxu3DrDoR6gqkyygBIRB+eUXwE/fXdguvB7sDyZff/fh98Uy17vUO0gAq7+Zv7jmpbi8BlCY7SnBi2Rg8GKD8ssvLrPxQuNeKttpf+7cLybnubyHzEfxc/p5aesDxQci6+5o4fscyOEuYSyei6cbArBvzVug56ZM17Ch96phg6YGTFjiLJlzKFXKdEqTOoPy5M6vcmUrqW6dhlZq16pvgK1Xr4EaNGhkQAWsALVhw8ZWmjRppsaNm9oy4KUtYGZ/s2Yt1LJla3Xo0Em9e/c9T4mff/55026/99572rp1qz755BMzV8EZfPnll8YtfPfdd2a6AtRQaWR37NcAnEnL+4g+8z7yfmA9fh95X7Hdl2lH4Rc+R/z9vu7twsf5NcP13wrW8M1yU6z/L/38/n7vvn5v++89g7enBqgMFAYMjg7IjceOndDx46d0+jRKFgD4i86cwVRzxmQ05LSTJ8/oxIlTVo4fP6mffz6uo0eP6aefjurIkZ9t+ciRY/r552N2Ts7LQASQDEYK1w6AHUwS4ftlwPgk4gOO+7WJ4RzvKE6+RlnUrm0nxZSpoMKFigp5FSoK28t6zhx5lTpVegMtFBa2uH69xsYyN2rYVM2b32MFMFKaNWtuCirAyD7AGlDaxmrevIVRWxRapsBq1Vpt2iBHdzDQAtyOHTuqW7dups0eNmyY7r33Xt133316+OGH9eSTT2rq1Kl68cUXzZyF5hrt9rp160xOh+1HZge4Dt74w5H+cFDSZ/SLv9OLcSbsC4OeYy/2C5/nYvt9298KVr+J36u9I3x//M7z7V5f6UN7+7+r5qXjgYStlIHBIPnhhx918OBhHTr0kw4fPnIefACQAhjZR/FtgNT3hcEK6Ck4PjARMCmEr+cDEiB7YbDF/3l/Al7AbuuCsgdUdudHuzR0yEiNGf2AJjwySeMefMSUTl279DSWuFbNeqZkSp8us9VlYypq5gtztPezr/Txzt167bVXNXPmTKGFxoyEBnrAgAFWRowYYaajMWPG6MEHHzRlFyYkzE5Tpz5vx73++utmLsJGjPMHtmWo6sqVK4WdmMIyziJsx4ZMTcGm7LZl2qFYw9RFf/B+eNZz56CQAXfD2GMZeTnYFrDFsLfWH9b2X4lN0D7ghhy44X7mOlf6+58G65U+xD+tHYPBAeRgAUwORkCLNpTCMuClsJ/1/fsPnt/v7bymTVz7Q0a5Dx8+ZBMC4I1fAvdFjgna/vTTYQM29wVA4yhGMKhOnTqrM6d/1fGfT2vblg/14AMPa/KTz2rBO4u17L1VeuP1+Zr2/EwD7/hxEzR82Cj16N5HPXv0Ve9e/a3N4YM/6/ixU9YHTFTff//9eYUW7CpOHlC6oHxlsqizr3hfASqKs7I8E/3pk5/3Kev0K8/IdeBiKAcPHjQlGufiHBzPMUxKzubyjgAhYsfv4Qmg0Q5Q04YC8fzlXHCcj0u2xwE8OIbr+LW8XXDN39cbJIDVe+ovrBkUc+a8pI0bN+nbb7/T8eMA4/R5kEElHZzUTkmdijqow7UDnDpuO8uXLocPM9B/1sGDh7R//wGrjxyBEkO1j9o+7u/kyVNWzpxGNpNRepQ7940dJ0D5ysuvm/w6fdosPfLwYxoxfLRtf+Lxp/XkE88YeEfde59WrVyvI0eOxw7wK6cqf+HriVUcxV3xctQPIPrPQcv6rxfneo1qOzDD53bw+7ni138qWIMZJJg5wjfBjTEgvvnmW+3atVsf7dipzZu3mI0NOxuDdsOGjVbwgGHb9u0f6PixE+fvN3w+NrIet42XHlfitp8//Hdnx7gWcUtBhwfnD2bWfx1UXAOAYfNjtsZTB1YKbyG8evDiwemA58UVcMeOj7R16zbb99Zb800WGzVqjGbPnqPVq9dq7959Jm8ig7oc6iCF3Q1vYz1caBcGt1PWw4cBvRcoc/wSUOFgEgjY7eCaAXsN6INJ4LDVP/30s06dRM791aj7iuWrDZD3jhxrYHx0wuOmaOrYoatat2pvJh1Y42eenmrUd8jgEVqxfI1Onjhtne2KLafg/t6c6sA2QtnZ7iykt4l7W8GSt/FjqDkP2/0YasZieNvFzsN+JqdvvvleX3zxlT7//At7P19+iSnrG335JWatb/X99z/qwP7DOrA/EE0OHTxiHAPyPXqHH74/KCZDKPzJE7hqBs8SvuaV3JO3/1PBeu7sbzp7BqXIWZ0zL5Rf7aFhbRYvXqKJjz5u7FCL5m2E/JIrZ4SyZ8utyMLFTCmBAT171tzKlDGbqlSuqbVrNunokRPGVsD782D+42VQgh8vgBcTFH8h3jaYRHzt8jXXcuUOCh4GJ+soelDqoMD58ccD+uQTnOh3mBkBuyBmBjx4UJCgCMHDBw8eCtrLatVqqHTpsipVqozKl6+oypWrqmbN2tYOeyKD4rvvfjDKCDiROwFPWDYFiFDe+MXB6lT199pd7DjYato76J3Npi3Xpj586Ii9i4MHjtgg/ObrH7Tjw0+M7Z3y7DQ9PukpAdbRo+5Xl8491LlTd3vXyLNPTZ6ip596Tr169jewnj51oXwcn8qE33P4bfnApn3459t926WO931+THissC0A+K/mHjl//juaM+dlPfvsc3r6aeTlqXr++elWZsyYqRdffEmvvz5PCxcsNfZ+6ZKV2rTxfe38aLc2b9queW/ib71E7723UmtWr7fJHBYfbgfuiuuhyWc5Ttzwp/jX+orAGn+G4jQOlHBHM5ChRPyOHzutj3Z8qqnPzRAzb98+A9WrZz8r3br2Uts2Hc37pXq12ipTurzKxlRS6VLlVaJ4GRXIH6ViRUvp/vvGa+GCJdr/40E75+nTPGDAW5w+jXbzlG13z5KAusZuiqddpmPCMxvr/rtwmWcL5BCoJh3JM3399bdatWqV5s9/W6+88qpRRGrKyy/P1cyZszVt2gzNnfuarfMyn3lmih5//Ek9+uhjGjJkmPr27a+BAwdr2LARZvzHAWDQoCHq12+AunfvKRwEJk9+2jx6AAn3AWXj+oCX5YAK/itY44Pwj6wD1Csphw4eNSqy/8eAmrD+0+FjAsBf7vtWKJxWr1qvGdNn2zuHkvLux4550NhiQLx+3ZZg8j0X9HMYLOH3wTvxcrE23vbPqv1aXnufw/WMGXOfvTc4Id4dThvDh91rXATsPs+H7M6ExDPXq9tI1avVUfNmrTSg/1D17jVAzZu1NPMTtmPOs3LlatPoOyGAKECR/RfIy4Hsy3baXRas3LwDkxMBXNcMsp2OtG2nA9YGqrpn9169/tpbJs8M6DdE3bv1UaeO3QR7RGnbppPat+tsgOWBsM81adxStWs1UL26jRVTpqJy5ogwIzptZ896Sd988509B4B1YZ3rUuLA6o8aV8d1fsD++DOEZzJv47Ufja0S9n3nzk80ZcpUTX0eN7nXxYz7xpvz9NJLr9j666+/qTfffEtvvfW2YHEB7AsvzNL06S9YAbRQ3kceeVQTJz6mhx+eYIZ+QDpg4CADMoMA4z8AHjHiXj355FNatmyFfvxxf6xmN5BjndL9ETBeru2VABV2+qdDxwRAAacXwHrkp+O2DxB//90BKwB344atWr5stVFfqCsDe8P6LcZ90ceh+dKAGZ74g3fAhBo3gP29eM37+rN+/u69BqwACFMa74LJlIl19OixgbfVgKEa0H+IFZRo2JnHPThB3br2VoXyVVW8WCnjFuEQmzS+Ry3vaas2rdura9fuBtY335ivr7/6/oLb92sCTMY4HJ5rk7mvy4KVs9GQwQ0w6FAf6HFgYQYIWAdkzuenTteQIcPVoUNn9ejeWx07dFHbNh0MoIAW31IoKzY6QNuhfReh7m95Tzt17NBN9es1MbDiU4q9rn+/Qdqyeas9GGzD6VPMQsGL4rru6uXeJYGHSdyL9BdAzY9juHdf9+eynaFBBNu7b99XxuYOGzZS9947RmPHPKBHH52k6dNm6uWXX9Xb8xea6x3ud2+/vdDYormvvK7Zs1/SjOmz9PzzMzRlyvOaPPkZTX7yGT311LN68omnNX78Ixo1aqxGjBitESNGaeTI0bp35BgNGDBY3br1VLeuPW3bSy/NNTbq229/0MkTZ3Tkp2P66fDPly8/BeaeywGV/VcG1iM6fIjrcv0AtMhqABTgOmgBLqLLieNnDNjIbfu++Ebvb9uhRe++p72ffxUr9zKWkCHjKKi/J38PQR33Hi/cHrv3TwKsX9trxghjjR8RRb169VbHjoETBoDr13eAhg6Byo45r2TDfNWhfVdFlyxrnCGALVok2rjFMqUrqEL5yubYgY8173zGjNnatHGLRUah9whHJPFYUFRqX75isMIOQkn9YQAsPwY6am/U7FCYsWPvt1kIIzVRF7B2LLdv18moa9cuvQyYDlBU+t279bZtrVq2s5mpfbsuqlqllhnQGzdqriGDR2rZeyv1W+zLBazMPsGPlxnIrPhoUgJH6+BBYxtZxb3z82fw9QuBizLsmIF0y5ZtxvY+8cRkm0GRwzDqU7jncQ88YvLYCzNe1OxZL1uZ8+JcvTTnNb3y8huaPesVEwMQBfDyQdEChXEZzrSkD0/S2DHjzMTBczJDwzoOHTzSTB6dO/Uw7equTz/XmdO/6fChACwOmkvWF5FtLwbeKwUrVNUBS+1UNrwd4H737X4d+/mUtaUdIhEFYAPkY0cx26BhDpw0nEMLv6vwsr+n8DZfvtQ+b3MldXhMhJc5FqXh9OnT9cADD+jBB8ebaIPbI/LsvHnz9c47i/TuwqUmskFti0SVNJEO9rdWzfrKF1HY9DNFi5RUdHRpFStWwqKXmABgsR9//AkLQVy7dr327kVv8b1NoIHY52NWl6es3HggtwXgCGacOFc2bFS4dmGshoUDmChXqFGwdOrURT179lKf3v2NyjLgkV2hsNjd+vcbYgoJHMEb1G9iVHbggGF64P6HzRSA3e75qS/onbcXCW0bWrZYzJ2nkHFscEBlA/D+/ozNMwFQn3wcrJwXoG7evNXY3tGjxpqc2blzN1OYEHFSvlxl89TBYb1SxWoGXLgCnANQrjz80ETTjKJ0wYwBSFkG0Kwj12DOALjsA7iPTXzSjnto/KN64P6HzM+WNphFmNRQ3uBEwIC/JDhjqZ63uZx8e6UgPd8uFqCAMwxQrsc6YKQA0JMnzto22GK2+THUAJqa+8MOioeVEwPeBWPM3zFgCYMn/vKVAPFK2lzsvGyDEHE/OJIQlwunxRihoDH2Hwo3uAaoa6nocqpUsbpN1n16D1TJEjEm2jHucZfMnDmrKRbvv/9Bk4GhtB07djb2mskAhRYi0O7dn5ki89gxTF3nLg9WboabdoMzB/kPozKhTsOHD7fg5Z49e6tXrz4WRYEyhWgKKCtsA1S2Q4eOatmylSmW8BOtU7uB6tRuaAI5QEWL2rNnX3vgl+a8qpdfel2PTZxsYVV4vmDj4wcLzKzjk4iHJgXKp4DKOoC5d37UcSFLwTrPQkEGP2f+txIUjHtnogkmmD7GrsOyQ+WrVa1lIWEReQua+xya7IoVqgpvnapVapoPLCCmLfI5ESnYF3F0d4Ay+cya+ZIVAIwTAUoZnvHll14zYKOwwJmAkLJNG7cZAAArbOaVlUCLG5+SngfeFSqV4toftesCsjD7CzBNZg2xx4DTJwwHaZgSHzjgpqA4RRnABQBowKG4aN9hkVEa8u5+r9jL/a/9ITsGJiA4yWBCiZvkfVyhwUeRCCGqVrWOoiJLCMtGjep1FFm4uO5IllLZs+URilXigZMnv8tcJjdu3GxmII4nLBDO9IEHxplsjIyMMpLzQr03bNh0ZWDlppj9mGX8BnHtIt6xb9++6ty5s1FPKEy/voM0ePAwAVz8OzFlMHO4NhR/T9pNeHiSnpr8nCY/OcUGMuwDGjMoLJrj++97KJY9HG0qfwY1cpAL4Sh/gkiGAJxxZhsAiCqcF058IUowf9nYCPFSCRRj9jChv5+PHteKFavMJ5WJo0qVGtbpObLnEeDEvxV/1yyZs5t5iaiSu+9KbcvI1kSc4BdLfCfLUGEiTdB4e80ywEZjWLtWPXuhTFzNmt5jz47GFJDSDy2atzY2GurE4HeW8u8Cq1NQVy6Fa0DJfthcCvt+/OGQFaesTlEBKw4YbmY6eDCw57LO5ABosSxAuYIJGdk2mGAvpvF3IIde5X+8yDl//RVRD8AG1N5PCqX1H8tffPGlBSRERRYzt0rGCuOEcZPi7rRKlTK9MmfKrqxZcikiIr9R1rJlyxsHCmF4//0PzF6PMhOrw8cff2rWBThViN+IESP1yCMTrhys3BwUiARdJOTCl5MUIAC1Q4cO6ty5i9q366iuXbqb3IrT9CuvzNU77yy0IGNmEWYOLo7a+4033jI5dOHCxZrz4ivGQsJmQmFRPsEiDxo4XLDEyG3Id7xsOidQZYcBR+fRoWwLZNaAygZU1Ts2XANi4jaJzCBn0ZtvzrOgaCaVKlWqic7Mmye/MmbIqgzps+iuO1Mp+R0pdPttd+qWm5Mp6U2365ab71Ca1BnN7IQmG4VC2jQZlTtXfuXPF2nAhfIyy2KOIhqlYAGc3LErF7V2ObLnNZkGRQQyDe1Llihj50JLvmrlOpP/fj560lhHgPDvgDWOQsaZaRwcF9v3L9twqLgI+8s7AYwUlp2COvWlDlNjlg8fOqoDB1BOxblUOnD9ugFHEAAXRd/p00zCAbUNs8i80/8eWKGqjCc4Oib8IMjBxSaujZcXLCs29oEDhtg4Ru+ALgYdDBM27zp7tlxKmTK10qXLoMKFo8zWXqJEtLHDW7e+b1FS4fGJ88W6dRsMO2DonXcWXDlYkS3wxCFqoUuXLpbyA7D26tXLqCsRDuTrmTx5smXYI1CZhwr/vvhin5kvRo8Zq9dee13Llq/QwoXvavq0F0yp0qJZazPj4P3Cw6JwQaZFe/zQ+In67tsfbabjnIA2YJPirkBnnjsHu0JUCmwgfqffat++vdq9+1Pt2PGBNmxYr7Vr11g2BCYUHMVbtLjHtHQ4KSD8Fy1aXBER+ZQta06bIdFKA8I7k6fUrbck1w2Jkuqqq67VVVddY7MmGuwxox80bTbyCsArVLCY8uQuYOxP3jwFbR3bMXbk4sVKmxICQNMGBQQvFFATtI2zCGFlsNJ7dn8hgApXAVCd7bw8YC9kgx0EXjs4/ghgHazUzuYePBAnqwJMinnuHPpZB/cHAKctYIbShgHtYA3fC8vYkwPPqcA3GuBiZ4Y9PnPG2eO49/7fWQKcAZcGEQgobCAyMfaYIPgRoP/k5KfNNIcTxMYN28xkha804g5iDCGBZM8oExNjICX8D84TMRFzEM41RFNxSi/hZ0IkgNO4rDaYmyKsiqx5UNQpUzD0P25hRyTagsKiXFq9erU5V7tZxx+GWRF7FT88mTD6Y08kcmLhwkVmFiHNB8oZzDhQV8CKMA5l7dtnkIEV/9N9X3ytc+dQDp0zNTcPgAM3LDosBDL053v3WmpO0m9yvxMnTrTkX0wwTZs2VYUKFVSiRElFRUWpYMFCNsvlzJlb+fMXVIEChZQjRy5lz55TuXLlUa5ceFjlsSBq2Bq8raCyKVOk153J0+jO5Kl0R7IUpq6fMR2N8CuaNfNl4wawF7uDB5TUVfgAFZkGcLIdiguYocYFjfJGqXDBIkaFYYWxxTHIw4ANA/VSlPYCedXcDgOqGmY7fw+sF26HPY2TWQEebnYAz4tTTGqoJvfrbDBtWHZqu3//IR04GADRwUkgAp5T7j0FWPH0wekebzF8l3nHhAcyngK2ODykWY7PScVfj9/+99cZv4AUDs0tDAF1DY5xQrFnz2e6997Ruu++B0xxCEg3b9xmZioUi6S+gcIy8aJ0xaFi4sRJxnFCkWfOnHXeCSZ8N1w/zs4a7LkArMENQrGCwjpAhVUkmx35aWGDyZhHpASuU+ShBTBQ0ThNXiAjhmcgLgdYATuhUAAcbyAcDHAgwC0NWRZXROytGJfxBkEjipIGL5F1azeZRpQBvH7dZnPnemHGbHt4jNW9e/dR69Zt1KBBQ1WrVl0xMeWMSgJCZIW8efMpd+68ApwUAAk4s2TJZnIoVI1CSJdnOsiQPqvSp8uiLJlzKl3azKYwaNyohVF87o37QltLQROIMwgabJRFbBs5YoxNPnhpoUGG1SXmEypKfCdUm4kgZ/Y8ypcrvwrkKajIgkUMuM2a3KO9n32pQ9gxD/2so7E2TKgrIIXaonXFTPLTkeM6eOioDmGDPUIy8OMGJADi1IzjWDfHBfxaDxCNc+QCgLAOgPB7RemDb+vBgwFYOB7/YKd6tAvaBLIH+nEAACAASURBVOF7Djj2f/vt97Egi6W2P+zXD7GF/Vzn+x/268f9B63+9rsf9B33RMSRRRZxTdwgAewhG28ePcN2ZFmKjzk4KnQUTgWZ0NFPuNIxEJHi9ByugIxf095BGgaPLztG3M6/Z/dnGjVytEYMG6mpU57XuwsWadnSFXr1lTc0dvQDat60pcrFVLSYXwCL1QBbO+6luC9C+Nav32DaZr8G9+T6Fq5HQWy7JFgBG43oJIy2rmYHwOxDhnV7q18oDFAuEv4BbDLpAVbYZYzNpOdA24W2FMVKm9YdjTI9P3Wm2a1enfumDXrMGsxUaImxW7KM6ePZZ563Ge2xiU9owiOPiXZoUgH/iOGjNHjwcA0aiLfJYJOXATTZBdBSd+zU2TTQtWrVUdWqNU0RhLIHrypYlxrV61qpXKmGyaU4a8CWP3D/Ixo/7lG7LgDFLRLbqLueIbPAHfBykL/dsd1ty0xKKJIocBPMvHAUtarWVq0qtVS7el3VqlFXfXr1165PPtPhg0d1HFb42GmdPH7mApY4ANBxHTl6Qod/OmZgBbQHDx4RoWiHDgSmEkAaLrhwQrG8AB6AB5DYxjqUOQ4gyJdB6F6Y+rFMe2rAiGaTZTzOWPZ96AdQKhG3S7jbd99/r/0HDukn4nXxP6YQt3vkZx2yCQPXyiM2iLFEHDiw34BLSBvFFZ6MP/NDNyd5AvYZm5j3oL6BzIlY5AD0vEgAwoHpQA7aBMcF26CuAcvroIk/pj/b87mGDRmue0eM0swZM7V65Rpt2bRNC95epPvHjlP9uo1UsnhpAysKwwfue0izZs0x/c20adON8yM/88mTrrxFJxP4CzhIwRvP+S9gpQE3GC4ALnyTvuyzmh8TrsMg9WU6mYBhAoyZUQJH6DfNEwiQBWDtoH59B5umGOqEczhgGDhgqAEAIAECHpxBjhsXwGDQAwLYZygxMi+qcgoODKzjTdW9Wy91795LPXr0Vs+efaxmG/tQaqGVZvbjemile/boZwqu1q06qFPH7urRva9pvAEt50Vdz7W5j0YNm5mW14MU0ACiHcakw73Snmtwf8gysEhcL7hOX3Vo20ldO3ZXL+61W28N7D9EM6bN0tzY8LPFi5ZpzeoN2rJ5u/ldY9fDAeHQoaM6+vNJHT/OJzZO6+efCTaIM/HAmsK6IkvCjkJpAR5AgoJSQyUpDi5kRPYBMqgbFJb9AJI2gJpCGwcl29kPWAFmUDuIv48NsIf9PWRulFDTr7/5Tl9+9Y32ffm1vtj3lT7fu0+7dn+mHTt2WpQSEVl4xZGrmGistWvXmkjGFwZIQA6Hd/rUKRP2UAQFYxLqGFegsq4gcmVReD0AJKBEUQmBCagZ4/lShXG9Z/ceDRow2KjrzBmztGbVWm3f9qGWLl6u+8Y8qJrV6yiqcDGVji5r43TCI4/r1bmvmwhIxBWB9yRnh/DxCzAUsN8sQyxdtLwisHJQ3IkCVz0Hc3DygAKzTGd5ezso9Ae7vGTJElNK4Q3y7LNTNGv2HGMJ7r9vnIGtUUOA2MYcoKFW/foOtLSXgBO2EY0q6UMwlaAiJ2seNdvRpDqbSU07akwppaLLmmGaxF3BcgVVrljdKCgg4/xOBaGAAAqDNjIzGunAeaOnGjZobrZhjsEMU6F8FXOOAKBcC1aXe0NJhCYZwLLN05kAWq7jEwkTDCBmomLC6Nt7gAYPHKYB/Qare9de6tKpu9W9TYYfZrI98aJwFHAZ899aqCWLl2vVqvXauuUDffzRbu3etdeSmWGoB6CBjBm4BkJdocbIoE5FARiUlBrwsR2qGlDH77V//4/abxTtkLG3tIHldXCzHgfSOErLdkwRRBPhX42JAq8wPHUWL15q/tWzX3xJU6dN1zPPPqfJTz2jx5+YrMcmPaGHHp5g3j1Dhw43JQyKGDiyoUOHmJ5k7NixZjpk8ic1C8pPYnD5MTaN4sb6BLDOuHTiQhvG6MWUOb7PTnQFf3t2f34erLNnvqiVy1dp88atBtaRw0erWpWaKlQgStElyth7xwHmtdfetIyNL7/8iul+EC2hnnG/wLknfM88w0XBGjxIMKv4g/uDUtMR1P5zkLJO+98DK6wLiqquXbvGAvZBA+r8t94xlzrYRdwMKV0699SkxyabHIhcCDiQJQEn4AOY2D1R1Dh4ASzb0LCiTaUgEwJmSq6c+cznGPsXsilAQmGULm0mAxbbOAZwAWpSayKfYjpChgZUuELCDpNS0yOGkEG5J47BvoodFbsqScKYGKCszZq2tAkBpRFghQVmUuCZu8QCFnB26tBVHfCXbtdZ7dt2UtvWHdStS0+j4DhmcCzacc7DOWGfWeY8ABwPKMxccCW4wGH6MRDv3K3Pdn9hXjZEyHzz9XcGPAAJoEyGjAUdIARoAQU9ZGwr8brIobQlLhlq6gClHdv37fva4j4BJtdcsWK1Fi1abHoJuKjHJz1pykUiT0iQVqt2XVWsVEWly5RV8RLRKhxZRBH5CqpAwcIqUqSY6RvQzruLXuHCkaYYLF6c3MQlValSJTVv3lzt2rWzXEt8BYBxCTVi8FPzQ7aFcoXHrI/d+LWPd6dmjGWUSWyn+PnZz++Tjz/V4IFDNGbUWL085xWtWrFaG9Zt0qKFSzVowFDVqFZbRSKLq0ypcua1x7sxs+UyFKBzNX78eNMBcb9xUmMA1oA7CK7JM1wAVi4eBmr85UsB0R/6YkDlOH48IAHamHn4VMPYsfeZfyWzLMoYqA1eTTVr1DMNK+YanCYeeXiSybIReQuJggYV+ySgRLuK7RIzCPvQrFJYxiRCcW0rkTwA1vf7djS+FPZTWM6YIZsVYmu9QD0BRauW7YVjNmDGJgpIASiggULj8IAXEzY2AO1UG5ABuLC8yvmclYadpw2umL7NjwGkFNqz38Ha6p6258F9T/PWptBo3bKdbevYvos6d+xmlBn5F4p974gxGv/gBD3z1BS9OGuO3n7rHW3asFmffrxLez/fp4P7D+nY0eP67pvv9f23P+joT8i+h/TdN98aSwxbjNsdH7miIIOihSfgnvcIa4fGE7sj2QiJ242ODuzGxYpFm/24aFQJRcL1FItWkaIlFV0qRmXLVVK58pVNtiMBG31Hf5cpXU7lylWwrP/EAxvIa9VR+bIVVDq6jMqWKaeSxaNVtXJV891l4gj/Qv4L4c0XLAMSFEYer4zWmfhduBDOx8SE3fOzz/bqo48+FnZR8hhTSIs6dPAwY4OhrLDBWze/r3fmv6v+fQcbG4zMWrliNROB8FRbtGiJhcgxgcFh0p9gw/GGzIpM7XhjOxPPRcHqT+IHs84ys4oDz/exznbW/ef7wsexjQvykSMyzpEQa8qU52ITOG8SiiSURoH2d6DJh0QwoBkOHA7I8h5hIASY2bLmVuZMOQxYLANeByOApGAOofgyAIZyhvfnzRNQYo5H44v2l5Ilcy7TCEN5ydBHSk3SawJMct/6gGId6gllZRsZ6t1bCdYXoFJgfwEjYIWiAkIHJgBkGdmX/YCRbWFgs04BxBTOAeV1KtwOisv523Q06ty1cw916hhQ6XZtO9q5Aa+dp30XdenUVT2791Lf3v3Uv+8A9evTXxMnPKYli5Zq546PjUI89+xUzX15rrZu3qJ9e7+w3LwoCQnawB+cDIF8A+epp54ym2GjRk0toL548ZJmEiscGakiRYoalUQ0QH6HI6Kv0I5TipcorWLFS6lEyTKKLlXW+rd82co22RFqVr5cJQNq2XLlVblKVQN/oYKRSpcmvVKlSK3sWXOocMFIlYouLRSFeP1gSsHv9qGHHtH48Q/bpzsee2ySHnroYXPnGzfuIavvu+9+C3mj/fARI83LDhe/AQMG2vPg8keJc5cN/N7xyvM0qSQPiCld1iaMOrXqauTwezVj2gua/MQzNklWqlDVWODaNeuZfgI3U/Idk7gcBRPJ4JjsAgwFCEK5dfLkcdvGFjAGZ/AvYHXAxa8BGyek8HNA+jZfD+/zZQc0NTlcsXm2aNHCwo4IxGUmhqoyOIn9g7LyonCAhoo66KgBJMCC+lEDPK+htA7OMHD9+Dy5kXFpU0C5cnKuANS09fMG54qwyQDzDQClsAxoM6TPrHwRBY1aMPNTYLEBM8BmAOJ5hCIMNpUa5RNgBYyADArJOss8N3Jrx44BO9yhQxd16tRNHQBru87n9wPQMIihmJSOxAUDfJRshBy27qiWzVqrWaMWuqdpKzVr3EJNGjY7XxrXb6r6tRuqbs26qlsrrvTs2lNTnpqiRQsWafmS5Zr3+jw99/RzevO1N7Rl4ybt+XSXPvpoh1asWK6ZM1/QyJEj1Lp1KzVqiH93bZUsEa2IvDhz5FWB/EyAEYqKxAWztEoWL2XmKkBaNKqkShYro5jSFWySY7IrXbr8+UL/0afoAuBcECEqV66m4sWiFVOmnNVZM2fXrTffpsSJblSy2+5QxvSZlC8CLgvKHa2iRUuYE0LpUmWtjilTXhUrVFH58pVUrmxFVapY1cLVypatIPbRDurP93pKlMBxpZSKF482B5lixYobOw5bHhVV1CahggULK1++AmYOzJ+vgArkK6jMGbMoa+ZsqlWjtu4dMVqPPjLJxJJ6dRqa3ArXg5UAXQPxzhSyT0yaNMkStkHIwEeAGWLGT8TmggqI3EUpq7WO9wcQg5MEvDvLDlou4BfxOj5w2e43g40W54To6GiVKlXaPDroBORN7I2wnBkzZDcwAsRMGYNlWFbACBWFAgIuZ3W9dpbXKSft/TiWc+UEqJynkHLnKmTrgDMMds4VkZfr5DKQItcCVmRhnBlwnsCpgqTTyNE4a0Ot8RFOcXcak4Mx+0BFASkyJcCkMBlRWGa/s7sGPChmlx5q07aj2nXoovbEALfrZJQQUFP82BZMAC3aqGUs29u0cQthkwWw3Tv3UL8e/TSoz2CNGDRC9w4ZpdHDRmvUsNEaOfheDR0wTAP7DFK/nv3Ut0dv9eneW4P6DtQcYivXbtT2ze9r7fI1WrlkhdatXKv3N23Rzu0faOeHH2rjhnV6aPyDatyogYpEFVb2bFmUJVNG5ciWXVkyZVb2rNlUIF9+FStSXAXzF1KZUmXNxhhdvIxKFCtly8WLlBKldMly5jRChhAm5grloKJVjP1F1ocNBqhwKYA2X95Cdo5iRUoqW5acSp7sTt1wfWID7B23J1f2LDmNxQ7eMxM6k3ke5TY9BRNIoJhECYhbKHoGd/EkpM1t4Ewmvow7IFwCxT3bHLSRkUUUGVXEuIYikUWVK0duZcqQ2Shsj269NPmJZzVq5FibSLG1MinDNWJWJB6agHYKpkx87sMyNualoEAgA84VzF0RZXUQGmJj/wCfg9LBDIB9ObyPZQcrLBQfOkI5ULw4sgusURFjf+hIOhvwUCOLBkqiOKA6sJyCsh4ALJBXfTvHx5dZI/Li3heANGcO2GGUUCig4lhhnK2ZMNDmopzC5RCqigwKYO65p7UlliazA2YX2F6USrQF1PgPs4ys6myvgxZ2GFkTass+N/mwzdjith3VlGCGlm3VslU7W8ZMxaTAdSiNGzYz2x2Ki6qVa1ipXrWWyUZNGjXXoH6DNe3Z6Xrv3WVauXSVNq/boh3bPtLO7R/rw607tHXDNm1YvVFrAOTSFVq+eJlWvbdSO7Z9qE93fKI9H+/W559+pr27Ptfunbu0ed0GbdmwUZvXb9DMF6araZNGKloE/UBu5cqZXenSpFPyZMl16823KOXddytn9hxGaSLy5FO5mAqqWrlmANgSZVSxfBUDaZno8qpgwKxiirpyZZFVK54HKJFNiBooGlkuW6aCsmXOpWJFos1miQNJirtS6sYbkijJjTcp9d1pVDCisI0hxguTPu8CjzOAhwMKLLhbBgAqBdB6gepTHMiBayiUNhawxeIAizsq4C1WrKSKFimuQgUKK1/e/MqZPbct39O8lZ556jnTDyCOwPGg/MMMiVmQQBeia/iWz5tvvmkKMJSvKJH4wQaHZdZgWzxtcCwO/+3KAeon8HVqBzzOFcirNWrUMLAya5UuHWOdR4fSse4zC2DQ/vICAtACwCDyxTW3yECAg/209QJriqmHwnJwDtpBYfH7jZN5ASvtaMNsTHteeL58BY3y33NPKz3x+GS1bNnGHPzxIeZbLVBQ5FWuD8BhhfEfpuY+UDphAkKh5Npgl2GN9TVlVTujiEwEALRBw6Zq0vQe1avfWGViKtgggyrQL1AbMxlVraVK5avY4K9QrrLVmAgY1IXyRapY4eLmYNGyaSv17dFPwweN0CMPTtDs6S9qyYKlWr4YqrlOWzds0YdbP9DHH+zUvj1fGEg/+2SP1QFQN2nTug3avmWrli1eoiGDB6pQwfwqXozIIsxTgDWt7rwjuW5JerNuu+VWZcqQSWVKxRh1jS5R2pw7cAwoXjQAWnkoaUwVlS1dUYA0oKZVbBkKCzWFW2GyA7Bsiyld3jy8UNSgnMqYPouxv4AVNjhn9lwqVbKMiSBMtsE7zq9sWfPYWPLACSio+2ZTI2Z58e0oLONKAGYHckCNA8qLBYICpccsUyBfYWXLkkOZM2azifPpyc+YV1OvHr3Vo1tPDRsywsAKdSXjCHm5kFnnzQvAGocRrDCB95Vzr+y7YjbYwXe5mpPG/7Et7kbIN/uTCdXVq1c3kOISWLIk6S8CNzxYTSiigymXsbuBPTVr5pzGZgIqBjA1Sqac2fMaYNwOSw2oLyyBVhi2mOLUmDoMXkAHJUXJRFqadxYsPG+OIDPAU089Y/7N1KjhsXnixYQ2GxsaLpJQTagnuXlwPeTjTSTA5gNOtAOoAJnBiMyGfIYWvHyFKooqUkIlo2NUrXpt1ahZ1yYxBgOTEm1RWjWo11h1atU3IFSpVN0oF0Bl4ETkzKeo/FGqW6Oeenfro349+6tHpx5q17K9mjZoptrV6qhyuSqqXa2WGtVtqA6t22vCuEe0etkqffT+Dn3y4cfa+f4Obdu4VZvXbdLalau1fvUavTx7tmrWqKYC+SNUvlyMATZD+jTKlDGD7kp+p25MdIMSJ7rBwFsuprxKlSytsmXKq1aNekJuwymAiSWmVAXFlKqoSuWrxVLO2qpWFWDWsoBtJiQKnAyArVallkqVjDEwAFoAC2VFTk2bOq1RstLRMaZtrVunkYlIjAlAmzVLbnvXjCePdmJ8ORjDgGUb1DSuBNQ3TIHDYIViW4ksbqYZJqO8jMeM2cxVtFED3lFd1a1dT82aNFfPHr3NrAYb/OAD403x9fDDj4jv8xDY7jgJ8INoGXCuaIlhkQHuFbHB8QH4R9b9Jpyy4jrGJxMqV66s6OhSlp6zcqWqNisGsgKKhIqWDgPZrk+fAcbjw+e3b99JERFQ14LKn7+Q8ubNr1y58ip3rgijgmgJCxWKUoECha0d+/PkhtpGKHfuIJIFysmLpAbUzJoktWrevJV69uij4cPv1bhxZKqbYqp5HMf5YVNctWqN5fjFuP/xzk8tUJ3cQngVYdNE04e3FWBEvsTlkQwXtPnk4z3avOl9vTj7FfOyAniwz0w6TFSmYY6pqKxZcylHjryqUKGKUWMoDRSc9mhUUcDADte1wP0GBlqWkVuRY+9p1lqd23fVsMEjNO7+hzRs0Aj17tFX7dt0VD3C+IpEK2+ufMqWObtSp0itFHemUImiJTT9uenauG6jtm/drs3rN2vtyrXatH6zVi5boeVL39PzU55T2RgmjUKqWqWySpYorrSpUytNqlRKcdfdSnRdIiVNklR5cuVVzeq1jLKWL1tR9eo0sIJ/LKw7rHCl8lUNhGRTQB7FnZN3AMsbLjWq1laNqrVUuWJVlSgWrSqVqql61ZqmxGnTqq0oTRs3U4umLdWxfVe1b9fV3i0+3Og1mIR9Uoa6EggOWB2QABTAOlUNZFiXZYOQRSciFwMq+4pEljAPpTjqmtMAmztnHkUWilLRqGIqUaykrC/qNgrs4ve0NjdXODacO3AW4udEDaAG5ptAqQtV5feXgZUb4YcKGo+TOnXqqGjRYsZWwgYzcFEsMNDJDkEuI6gReXmPHT9hAb7w+Tjlo+TBIT9PngjTzqGZc+0cDvvsR2nFeYlN9a91k7TNzBjtO6tLlx6WiO2++8ZZKBM2QhJzf/XV1+a9Yzcb+0cqGRwCiMclUuiDD3dYeg9c/XD5I8AA+xnug1BUlCKwciiQSM/y9vx3LfCA4AOeC5dDj1kFrCwDSDJOuKyFRrRp4yC+F9bZWW7vIyYDTDF4OPXs3sdcE4cPvddsqUMHjxDeM/36DBQ2V1NGtWijhvWbGHWjryPy5Nfdd6bQNVddq1uS3qrx4x4yG+G2Le9rw7qN2rh+k7Zs2qo1q9do1YqVmjN7jpo2bqJ8efOpetVqqlyxkimUUqdMpTtuT6bEiRKbHBldopSgKlGFi6halepq0qiJ6tSqJ8wxLmPDsrPsGl8Ay2QFJeU54R4odWrWU+0adVW/bgNVLF9JtWrUsuXWLduYL+7Y0fepXZt25pCAWyahioCUGGOsBXE6i0IqXKi4hSVGRSJnQjVhccMsb2nbHiibaPOv5Tw1jQ3IKFo04AZRnlHwVMqVI68ypMus1CnTKEe2nAK0aImzZMpmnCATLlpnZN6yZctp4MCBxm0y1CBogcuk+wYH2mHf918HKxdy6soyswTRN3ztC7BmzZpdqVKmMRkPRQwD/2I/bFN8zxOAIjMCwpiYsipTpqwqVgxscRjgK1Wqojp16tqHeknpiUsjICMcCc8ajNu40gFAkq7F59y5V7YT6BykhAw8WPDqIcUGydNIO/ree8stYTX3i8sfvs1wAgAO6ocsy8BDXU+cI+3w6mEZv2MAgxwKqw4AoZYci7wMtWfgup0WUw/Ap0YpBcW2fLyjH9CYUQ8IcAJY9iMfGhDKVbYBlC9vwcC2WayUsWusF0Tznj23DaibbkxqZpD7xz6g1avWaPu2D7R18zZ99OFOAVxsrNu2btWype9pzKgxypEth6pWrqJGDRqqVMloFcxf0GRWZMdsWbKbvAplBbRNGjVV86YtVLVydZskoC44B1CwP0JFYf9xIjGxoEoNo7RMdjwHBcoMWGvXrGMUu3rVGqpRtYbq1alv7CUTx8tzXtKnn+y28+DM4mCFqqJPQOkIGwxVpQDI+IB1agtI49rFsrrO8oZqO75YSRPh8E5CBKHkjyikTBmymA0YWzB9QqG/kXGZmDFFVahQSTVq1LQvyxNFdKE2GPNooAX2LCcX9WC6GFD+020OVmpmDzRfOEagDc6YMbOyZs1hsw6DdcniFXY5872OvTBRCf3791dMTIx5fKxevUa4li1cuNAM8nPnzjWfY8L4CHA/cOCg5YyCisPzw+9TWHZ2nPpSbmgcC2Bx7oYlYZJBvsCIPXv2i1q9ep355JJeE9c+QuFQIkElAB+UEQACLPIqwSUguxJCh1wLoHl5KNVYJkMGKn4GKKYcPI5w6B82ZKT5C7MMYKHcQRLp2nYtHDGY8QH9xWR2Z/Vho9F0uhKPPk+VKo1uu/V23X7bHZa4i4wEeOWQ1QMfXth+uKCNGzdagnMc1WtUq2lOAAAINhR5DLkMVg+WD5AWLhgpQNWyRSs1qNcwlirWNsDVrhlQSo5n8sUjiW+08mlHi36qXC3WOynGzsn5KlesYmx/7Zq11bB+AzVr0lR1atRUjSrVVK9WTb32ylxtXL/ZlEzoHNA3oIB0BSWAhYOBqtHngbgVUEXYWy9OOWkTlADYTm3DNWANNMclFYnDR4Eok6dZzpEtt7JkymqOG5hzoKx5ckXYdZkUKlasbIXnnjBhgrHBPk6DIR+4GzI+GXeOn7+UsnJRfgBn7txXLO40d54Ikz1R6iBHIveRRePUyYBPB9jjxo2zoHGidXBxYxaiEELFrATPj62KBw7//HrhbSz7w1MDWgczNi3WvYSPo+38+fMtWojAeT6LAPiWLllhCc6gdFBWKCIKEsABZQWYr706z9hgZFvAilzLPsCNyQbWn2ghVPzInphgkENhF6mhRJwvmPXjvoF6XpGWr5AKFIg6PwgJXmefD0wGVfhYBl3OHLkNrLfeeruSJUtujilvv73AAqGRyQEsaUU2bdqkTZs3af369Vq6+D3zcoKq4eIHm3tPcyaYBkZRcQ7AjFGpYhUDabXK1U3RVLxoCQMegMYmCYtM8XxETBopUqay+8ErCRvq7bcm02233K6Ud6cys0ixIsiGUSpUoKDyR+RTnhw5lS1TJpUvU0avznlZa1eus6B9xhBAZTy5xQCgwsVQM1nFByt9EwZqkagA0GEqDDgdrAFVxmkCB4rSpg2GqhJdg/IrbeoMSp82vYEUoMIO47TBNZgYcO4oVbqM6tWrr6efftrGMuOLcRj4A8el0/UxyJj8W8DKjW3dukVdu3YLgsLz4IWUx+Q1UnUeP3ZGZ88EBuG33pqnOnVqqUmTxpaSJQh34hHi+Hl/oKBG+xzw/gjqPDzrHv4UyATBdj8urr23jZtU6EB+dBaUnCRxsNaLFgVO8lBMXCUffmiiUT5YOyglAEE5BAiRZ2GDyUaP/IpGEOrLfuJnoZSwfmh2y5epaC+fFw+7yowN64osZFrw2IB12OULqGkBlGtFFRVV3PxuCxYMgtt9gPiA5L4Acc6ceQwcSZPeIgCLJxmJAMiit23b9hCF3aKNmzZq3dp1Wrdmvdav3WCmCCge/rmwp5RKFSqrQrmKVrM9qmBU4BKYMrXSp82gu++8W3cmv0t33XGnkt9+h26/7Xa77vWJEuvqq6/VddclUuLESZT4hiS69urrdO1V1+qG62/QzTfdrNtvu00p706pVClT6o5kyXT7rbcp9d0pdOftyVSiSFHNeWGWli9ebtpYxhFAxZmFwrpbBegzJjEHK33i/RJHTQOqGoAXEEOBAy2xA5baAUt/Iq+iDQawaIQzps9sz4xJCbDiEomOwDX6dNPEPAAAIABJREFUTGbk+GrYsJElYYCL4wcugrFIJhQ4uyCzImOPfX8LWLkxvq+JmyEKIzS6dChsC2YQ8voQWoi3U7t2bVSvXh298ML088HEHpwbqLcBGCUuaJjlAMwBO+HJ1OKCjeOSqrEtrm1wLu84OovCjw7jI7yeZwoZmIiW5cvWmByKIokwNxRLfLOHl4jSBM8VcgOvXLHWUoqiHYYKM8szkGDNmPWzZ82liNwFlD9XfkUQLRRbcuOckTu/IvIUMOACYmfrOI5SoECkIvIXVgQUtmCUCkcWM+DSjkHIbO62QgYn1AXteJo06XTTTTfrttuSWZI7wArrCysMaClbtmw1NpgPDq9fu9Hk2YH9BxkwHZywqQCUmm05subQrUluMeXV9dfdoCSJk+iaq67WVVddpeuvuVbXXX2NLV99FfU1uuaa63RDosRKkiSpbkpys5Cjb7oxiW5JmlRJkyTRNVdfZeuJb0ikRNdfpySJbzSgJrvlVlWIKas5M2dr/hvzlStHAFSUdAAWzTo1Nu8IM9cB1kgDK/0CeNAS8w5cPKAOSlHTHgNKV0QBWgcqIKYvixUtaUDF/otZqTDJ0bLmMsBmz5rT2OGsmXMoT658dh0m6WpVa5jM2rRpM82YMcPEQhtkBliASQxrEHBOln4X3/5ysDJD8AMEzzzzrCmIUBrZ4M2Rx7yCPtj+sWW+IwVMpUoVNHnyE5b8DKoYpOpA3iQXDzMSs1EYcAFAAwBfuN2jGfyYIC0p0Q5Bu4DqBqw09+czmtdkZseXEzmDr2hv2/qh1qxarzdef8tsrFBRqKQrmaCysLhwC8i2AHbuK29o8MDhNiCQrwASSgdeJildSO2SL08Bo6YoKzC2Q10prJuCKNYjx9lgAAtAIylRxW2ZdQYk5/aCUosBxuDEfzdTpiy69dZkSpEilWWa5/MfOJgvX77SZFZAu2XLFm02NniD1q3ZqJkzZpvSCDYWlhZ7Kuwv7nbYPu+84y7zLAKIUMkkiW8yCpno+kS6+qqrdWPixEp8Q2Jde/U1RkGvvzaRrrvmeltOdN0NSnpjUnN0SHZbMt2S5CYlvu563XB9InO4uO7a6+zYZLfepltuTCLA2rxxE70x91XNfmGmOUdATQFoTjPX5bOsgrly5lVERBDzTF8BUuM4YqOAXGY1Klm8lPkT01ee/A6QhgEbB9ogVhoFE1wQEymTQpaMOYyqZ8kUpKzly4i8N1KVlo2pYMEIWCqaNm2uOXPmGBsMJuDizp4lVU0QdcM2xh5g/csUTIbOi/wtXrxYrVu3Vq5cuYzCYhdF+CbygQ854ZJIrCLZAfwHiNxIzDYHv+//M+qAHQkmFT8fHUl2gieffNKoK5+437Zlq1Gadxcu1jNPPav+/QaqQb1G59lBnLpRsmBSefyxyZryzDQ998x0jR55v0qVKKs8OfMruniMueDlz4vLWsDuQknDIGWZbYCVWR+QMuicGhhYY5UnDMRChQLqgAaUgYWXDt9fYfABXMAKS018cLLb77J4Xpw70HJjwlqzZp19lQC5FcCu3xAonZa/t8JSmGBLxYke31yABuBYBmzXXH2tsbWwtlddfa2grLSFtYV64nV03bXXn6esHMc+B+pNiZIo6Q036a7b71Sym2/XjdfdoJtuSKwbrr1OSRPfqNtvvsXKbUmSKl2KVOrYtp1ee+llPfvEZGXNkMXyaWFhyJYthyW+I/kdhVxb5NwiD1ehQpFmUeDLESSfDz7z0tu+zzRk8DCLuSUBGtYE5NZiRQmDrGCAxVZLPxIiiQcWXBQmosB2n9f6NF3aLMqfr4iZj1KmSGfiHe8EcyIJ+zDZlCoVrebNm+mVV14xZWggr14o2vk4BLCUv4Sy+oAP19zcp59+arGtmTNnVu7cZBjMrzx58qhw4UhVqlRZVapUEcnEcaTg5ywpMw3L/w2g+j3SOVyD++THtUivClhxl0QxMG3q8xZCNnvmLD36yKPq06u3GtSrr/JlywkvHsDauWMXTXj4Mb00e67mv7nQyqRHJxtYC+SNtLpE0dIGXEBplBPNZcEiVpyqso8C0CguY7HsrBvLgBWNpDsBxKcIUBGoCpwMmSwAKzWB/gsWLLIk5yiWACkZHQDu6jXrbBmwtmvTXmlSpTWQAjSAChU1OfPq62z7jTdCTRPrRmTQWKBiz70r+d12LH7DRYsUM5NGhjQZdOtNt+r6q69XomsS6ebESQVg09ydWqnvTKlbEkNdrzOw3nh9It2e9GbdnewO3X1HcqVLnVb9evfRiiVLtWThu+raqYu6deuuHj16Wk5rLAjYMckwMWTIUA0bNtxMJYTKPfvss1qwYKGWLVtuXNLKlSsFq2/s/vr19oFvxBy+CjH/rcXq13eI+aynT5dV5ctV1eOTntbGDe/rk48/19YtHwpucNl7qy3tT/ZseZUhfTbzwnONNDqEMmViLHi+SZMm5h//2GMTLaWLj+tLjWf2/S1gBQBcHNdDcvcWKEC4UYTVgBbwRkZGmpmGvE38AA/HOVB9tnEwWaM/6Y978+tRs06xHLFPPmkvnxxSgPX556Zq8hNPauzoserTq486deikenXqGXWtUqmq2rRqp3EPPKy35y3UujWbtHzpKj3x2FPmyI5jOpS1WFS08uMSh9Yylp2CpXKgumnA1wGaA9PB6usOYmrkKsDq8ip1wOqRDrW4sWqAFa0pX0dYsmSZgROgIrsCVADLN0pXrVxtmft4JmyqUEJYXApAhMLecN0NSgSFTZRYNyS6MaCiV19ngMbmSCQO7DMmnuJFSqho4aKKzF9YubPl0t133KUkiW40WTfR1dfr7mR3KdWdKZXs5tt0601JDaSJr71eSRLdoGQ336rkt92uNClTafwDD+rzXbt14Mf92rolsAnDAZHXiBxNO3d+FFvvjP0S/S4L08TWz/jDkkBNMkByTWFVgOU8e+asTp06Z5kj39+20zKFBFQyp/l7vzVvgdat3WyftHx7/iK9OneeOcBgDSCYI3WqDIFCMH9h5cieW1myZI911okyOZV4YIgV13Ww+pj7vWH8t4GVGwIAy5YtU6NGjVS6dGmVKVNGFStWUNWqVSzmlQ6n4/whaI/mzMHOdn/Q33vAf2e7g9PvketQmDhIoUquZFwm35n/tma98III0p44YZJ50uBV0+qe1qYVRUOKHbJ/30GaM/sVyye7fu0mi8jAmwj5pRSfB4yKVsF8Uee1v6QBCWuDWQ4DFrBCTY2Ksi9UAKGvu6kBgOKkgZbaAUsbZGYGFmz181NnmLwKMAHrypWrzXTDMqBFoTb7hReVP6KAbr7pFgNioAhKakAFvL6Owgiqev11gTyKHEvYHA7+ZHZA1o3IHWFALR5ZTCWiiitvjjxKfVcqpbjjbt12060GVljhW2+6xWTTlHfcqZsTJzGW+LakN+uOW29T+tRpNHP6DJ2Izb30775rjuP9knwNxScB9qTZ5bMYfN194oTHLZiArzIgPvCJGOzqKBSJikKrD8fCvuTJUijJjbdYUngUfChPYcvxJ+CDVCVLltSOHR9ecKuuQOIeLkV8/hawhu+UToGl7Nmzp33casyY0Zo2baopNWjHgzDbAVIexoHEQ13qwcLX+HeW/TpckwmBGlmZxOFohN966y29t2SpXpw1W6/NfU2vvDRXzz49RZOfeMqcBapWrqY6teoY20imQljhJYuWaeXyNXrqyWfNDRA/2bJlKqpoZEnlzpHvAkoKOJ3SAl5jbQtinwySwoVNDgAPyurF2WLkLdhhQAtYcaDgONoDeILlicNlHylGUC7xrR/YYAets8SkImEiypAuo4GV4G/cFLGFJk1ys1FYloktRS5lG9SWdcLHMPUAWOyzABbFVL5cEcqfG8VafhXMW8CWc2TObstQ25TJUyjJ9YmVNFFiY3vvSnaHKCmS32mmm9zZc2jRwneDhITYyO3zGsEY8XfOe+TdURgvvEsIAD+WGV+0wZ7PO4XTw65PAns+do0jCpMcSitkfLgQ+g5guvmMbZkzBel/0ERTmAhz584X66NMBFcB5c0boRIlSpho52lWnVPkHi73+1vA6jfG4PfAW5wb9u/fb2wBnUlH0rm0ZZ22fhwP+N8GKtfnehR/0dwHaUx4mZbz+O2FmjTxcU14+FE9PP4RG8z3jblfXTt3M8USHj79+gzQE5Oe0iMPTTR/XbI64GpHIYoEG50Dk9rkUqgm4IutnSVm3ShurIE/bGcFoAHrG5dIHCoKOKGsaDcptKEAbGTVNKnTm+80yiW0wBRnf50FxoTDV91RlkElASKsML7FsLfYUXFiYBtxppiDoK4UqEm5suUNrHg/QV3JnVSuTHkVKRilnFlyKG2KNMqeKZuBFADXqlpTVStUUcE8BQywUFLYXkBKAbAp77pbkYUKa/OmzcEYx9vMPj58+UHv44h37OMKvQjybYMGDSwxQp48eU3piTsrMddkh+AbNSinfJ1txLaWKVPOEsoTQUYpXZr0NDEWpFK8eEnlyRMkly9cuLCBFecerAqzZs2yBIKEjfqYvtS4/lvASu/SSQx+BwQdx89nQZYdMOFtPIw/EMf6cXbwn/DHOek4CtflxzbuF9mGfEN8jItEV6+/+oamPPOcUVNAC+UBqLC+2BxLFi9plARglkaDWKqcUdLAlzTaQr+I1oByIo8C0LC5xsFKfV7BFBvzy+xOAXQOUgch2mGKmSdiv6+DFtjBC2hh28jqmDJlWrVp0054L8H6QlmhqgCWZWRXwEp4IBQRoMLyAk5MNZhtoJyAmG0onwAx1PXmpLcoR/acBlZkXSJkGtZvZO6KhQsUFiwwGlxYX+pCRFPlilCNytXVsHZ9VSxTQXmy5zKAAtaUye9U2pSplCZFSmVIk1bVK1fRR9sDlvLUiZMXvH3emY8bah834XfKso9BwtTatm2r8uXLC1DlzBl88Q0NMmBDm4yJkUyL1GSMwBkfDS+ABbgsB6WYpYUhcB1gA3D2lypVyr6thOiHiEchDSlU1sU7H2/cf/zf3wbWMBi8I/1GASCFzvSbZtlnH9pxjLeJ/1D/6Trn9mtxXQrXQhnBt3Nq1qypunXrqWvn7urcsas6tu+sdq07WFQL+YaiCpPmI4/Spcmg1CnTKn3ajMJAnp/cTSVKqUK5ShbyRcA0bnSFCkSqQL5CBli0wQAWFhiAUgNkthmQY13nHJDO+rIOWwZ75hpIQgWLFCmu4sVITYJjBAZ+7LqlFBlZVKlSpVX69Bktydi77y42sAJYgApIncqybdKkJ4QWFxCi+YXlxTsH1hZfYAAKWKGs7KMdy7gfAlQ047C+OPlDWYlGKRpZVFkzZdVdye5SxnQZVTBfQeXPW0DlY8qrdvVaqli2oiILRioidx5lyZhJ6dOkVbrUaUyxlCl9BnXu0NFyQ/G+UQj5WGE9DFaWvfAufex4G9rD4RFcgrnQrRKVK1dR/foN1Lx5CzVr1tzq9u07qG3bdpY/rF8/vkHc10r//gM0ZsxYkYSNrJ3jxo0/X0+a9Lh93RxLAn7W5DjG4YdCTjJkZThLWHHuye/fFkJ/fwtYwzdEx4U70juQ7fzoXLYBFmYfP5Z1yn/r5yDlPvxeADDydeUqlVUkqoh5rhAYDaUirhG7aRAelU4p706jFHelsRo2kYGOJpSBipePs4MMdqhT3twR5wHpsqpT2Ui8bGKpK6yvg5LaqSu5g7gPgrZxYSSKhRmdWR9WDIqAIb5kdCmb/QsUKKgMGTKpYMFIiyZCXgWgFCgrVJWCggmqi+2bpGAokaCsyKysm49vnnzmwwtYkVFdAcVz83w49QNSKLAHpmOrBci45EGV06XNYNpi2uBLXL5cBWtbOrq0YkqXUXSJkorIk1dZs2RVxvQZlCtHTj08/iF9+/U3wRD4LRgr4fHg4yr+Nt4nY8fHFvvhnGBLR40apfbt21thYiZIZN68eSbPUpOGBU+2VatWxn4dADPPRvsOFJk7AR+F9EXoY0gzChBhdVFewW5jVQCoKLJcqcX+8PgO37Mv/+VgdTA6AB1wdCBggC1xcHCT4U717eFO9gf5s2t/0V77+WfPnq0GDRsopkzM+fhM2FxkTxwXcA8EqKlTpjPgEi4FBTLbYlSx8xpRwEohjSUDHg8gXAoBKMB0akqNK5vLrfnzBWDFyA4rS3a+atVqWVAznwghbQhfUn/yiafNU4acu8hR+KISlgVgkb1gy0hbU7NmXcu0B/UEqF5DVQErjhHkAubD2IAPpRLmGqgn8irgwlEdB3xkVpzwfZn2BGAzOaFww/Hf5Va0yhxLgSqjuAK8HrQNFSaGtSJ5h0uUVIVy5VW8KJMWXEcBlY4upYXvLNDxWE3wb7EckL8n6vBYCy97G5+QvS1AAkDktv74449N7GE8UqB6DibOxVjk+PCP8QvofUyzj3as+z62+Zj2Y9nHOS/3u+piDxE+WfwbCp+QY72w3R/+9y7Mdn8QbtDBx7G+7A/n5wqfl2XOQZtL3Rft/tNf+D7C58LjhKCCcmXLqWa1OgZYHPBRFgEsHO5TpUirdGkyGljTpEpnFAjqCcUAnPjRIv9BZdCOAlZYSQYroGYgwzKzTqQKNZSIfZyDUDIStj344HhjT6dMmWrpZqZNm2G5fSZOfNxqPHT4FiheYchPFFLoQGWRpUgV2rJla0s6DTgxz0BhqaGo1Js3b7U0NgA+bep0xt5CWQEmYWCAjfsFoFBIgq4BHzXyK8+NCQvgEdtKyJxpgvPmt2fmuYisgUrTB4CVPqGfeFYmAtLGUDJnzKSowpEqWybGwuQO7o+1wRN7fObCiKvwO7vUso9fxpO/c8Ym49THmY/F36u9nZ/Lr8e6n5c2XuKfx4/z2o+PX1/FgTTiR41cxklZ9pPHP8jX/eTh432ZB0Zo58c1/OHZz7LXzFY+Y8W/F2/j27kflv2cXIPyZ/78mtS+zGzJMj9MNw0a1FfRokUt1WY1AqYrBmBFUZQjWx5L60GYFNSVGkUMA5pB6BQVasOAhC2OLBRplJWBDzABL7ZIBykDmuNxJqhbp75lxps5c7aBiQ848S2ZPXs+t2gZ8tHy/U8SV/O1vG7deqh9+44CuACzUaMmFrgPewylxaWO2FXACvuLBhjqSnFtMG2yZc1hVBUWFyUT8qjJnTg4FC1haTihtHAI3C/PAouLIwQTDs9EdA4KJthi+oI2xHsCVs5FX9AWuZ6+oQ+yZs6qVClSGkhJcwpVrVu7jp6e/JRRVTTAv5w9p99+vTxl+r1xwrtlXPk483d/JbUf58eGrxE+b7hd/OX41wmfI7xsYGUDQHBSD9kPg4v9nDD+L3yR8D5uhnP4IA/PVL5MG64ZBhzn47gwAAEy98KPY9jn9+fnCF/7P132e/AJxa/p90CYXN26dZUcd7c06Y1KAliURiiLyApAEupUKaAwKU25lDljVgs+Jtsf7UjRSdaEiuUrq27t+pZbCEqa3UKp8tlAhuqimGnR7B7Lmv/g/eP05OOTNXvWi+edFfjmDF8DJ+sFuaL4zAPgJTifz9rz4aPJk58yRQfKkE6dOqtVq1aqXbuOBVCgOGE/7C7AhJoCWCgqLDFaYMDPR4AzpM9kroOwuVBVKCcTCAADXLD6PDug9NxDgBguAsrKRENb1pmoACtUE1YZwHIc290ey/MzsXFcmVKlVad2HZWLKatKFSpqxNBh2vPJpzpz6rR+ZQKPNdv8u++ed8579vHsy1dyPj/2947x/X5ur2nvx/i2y13P2GAaMRjRiPFzAHES/4WXw9sutj1MkdnP+fzmHMC0CR/ry+yn+M+B6evcJwDm+P/Wj3NzD+FrOFhXrVqlho0aWgQJfrEMLigGwIISADgGLSxjqhSpDKyESJFsGrkWRwiy/FUoW1lDBg3X1CnT9Nijj1uSbuQ2CppTvvmJWWgxQe6r1+mL2O/QHIj9ruq+fV/pRKy5gtQfANa/r8rnFlFs4M62YcN6LViwQNOnT7OPIOHX3KtXT3Xo0NHY6HfffdfACXUFrAAXKgt4cYggoIKMDiijUCpBBWFzARjKI9hbqCEUNUjsHWPAA6jsI7ULHl3Iq2yjj2jPsSjVOA7QA0zMXfQngIZdJigCx5LGDRtZGpm2rVrr/rH3aeXyFdKvvxnri6xq8uq5/2w8MP7C5Y+MLT/u947x/Zeqf+/Y8Pb/SMHExf+v/gAnYA3Pfkw6K1asUJs2bXTbbbebh06JYiUsrQkDDbYVudKDjmF/Md8QKoVJhgBlbKyUapVracum7dZ9Px85pmefnmpARaNK9oVFCxfr0IHD+uG7Hy152Y4PPtLePV9oz67P9MknfH3+Sx07FkyunIQPK505c84+w0ieKVjjL77YaxpI7MNoHfGV5f7ffPMNzZ37qlHPvXu/sPMRcI7JhoJSCbASgQMLjLwKWOEkkE2pXRaFpQWAyJsOOKgmBWVS+7Yd1KdXX3Vs38kmNQDs7D81BRmWyY70MJyPb/A8cN+DGvfAeA0ZPFTdunRV985dzBd7z67dATj5/sux48YCB59U/d8ei2AlPJb+Hdz8R2D9dy74Zxzz354k6FSA6h3sVJV7/+CDD+yTlbfccovlyS0SGWVfMIOFg1oAWJQllACsJM3KacongpMBKjl0K1eoYsHcZ079pkMHftbsmXOMlUQmhHJBYaBIjRs2sYEMW4j5o0vnrvbZBcDEx4rPnkXbyP0Gg/XUKZw3jtrXz6CubiYgHQ72PSKHMMRTQ3nJZeXfTd20aUtswPk2bd/+ocm+fOJhwIBBpphiEnL2F3CRzgUtL5SRZ3fw0RdQRzgEonSGDh5mwMO7iw9gQW0BLcfSBpDiHUUy7OFDRxg3wSR1+uQZnT552jgpzB9ofn8594t+OXfOlm3wG2UNqOKfMbb+l8/xPwXW/zYIr/RFMAgo/Khd/mYdWxohVxkzZrSUnB3atVfd2nUtoTWDFVYQVhZZDLBSSPyMWQewwgaTQxfHiYb1mqhe7UaqVrm2ypSqYKwl7DOUCxkQNpEClYJqlS3Nt2PKWyzm1KnT9P33P9g9BtkYUeJ5QRcQmBuIJPnuu++MLXbwYgdkGcASUA+l/vTT3aaggqoiq5JNEtsqLDFpWJFj7x0xSp06dDZKCbVEnkarzTNXrlTFwEtia3I04a3UtnU7de/aw75SN2TQUFHuHT7KMtWPGDZS4x98WM89+7zldiKb4hef7dNX+762T07+Fjv5GNWMVR6Z72+sfMqyvR9MI2fO6tzZ/57N3S70P/D3PwXWy/XHXwVmruPXcvnVqSuuYatXr9aM6TMsPSfO/D279xDGewp5ddFgZs6YWVky8eGmrMqUIaul+shD0mnSi/CRrZz5lTlDdt11RyqlvCutsmchm0D+8/Kea4KR86CyAJYaCoZTONRu167d1mXnzqG5R8uOksR7MXiGU6dO6sSJ46aPwI6I8R2gwhZDdaGuu3dDdT/Trl179OGHHxn7C0XlY798VJkfMvHuXbvNF5dvsW7csEnz571tcjWfinjlxbma9/pbevP1eVrw9kILp0PeXrFshcncfLeUHMSbNm62b7nu2PGRdu/aoy/2fqUTx+O5CjJP/iZL7fPLuV9NicQ94KV0Du0/7+fXWF0IogpO/L9caPP0Xvi/VF8SrD5g/1ce+K+8HwcsYHWgQmVZD/8wHeBJUzo6WkWjiih3zlzKnjWrfVUNwGZIl8lMOJhx7rojpYEzU/psKlSgiHLxUa3cBVWkcAnxpTW0pS734eheLArWMggpczaTrxfUqVvfNLTYQPkBVArMAGAN99O5c/hfBwOZe0fuxjzHpAPV5dugfLUcsGL+4Zx8IHjGjJmmXQ7y1kq/OqULPfwvZ3/V8Z9P6OSJUzp78px+Of2LAcybWLYcX7mCOngONP54FzHZwNkEsw99z73zDL/+FnA7cDy/xs1OV3CFf3aTS4L1jz5aeJD80WNp/58e/+9c82LHcB8Mivj3wzaAS2EZ+x6/Jx9/wgz1pMnks4d8rClNqsApAHvkLUkJI7tVN95wk5Inu9s8lTDhRJcsY2lG+QocZhxYXEBZLoYPNvMZxIqmfEG++3/tnUtvVDcUxz8AgqJKvHYtQixQHxKCRdNK7LpICRvCpmRBWUWIZ6eV2hKitFmFAKErhBqUfIICG2ADI55JaNIK+kjprrSFRJChVWEyMwQO+p07/5F1dWdQSyIEsiXLvsceX/uM/z6+9vExU87t23ZYx95O6+8/5tsxSDg5pCodOglr4rVms0ptUn7qT+fHs/0DYJkKM93l1gFu/GbBSs7xzmAw89gA4SOk+UMISY5yqWIVzw/vHmIZywGe5Gfllh/xXZGU4RIzJQzDOgJSKQgJqPo/qDvbjHKk419kR9vk67VjVsFa7yUvIp0/X52D+qtDOEhnZvw79u/CPZu8PeHbCajEsWnPXaXLlix1/dXlr71uSxYttoULXrX5815xZQJMm2DwGQDi2cZgqotE5c5aDuA3NzdbW1ub5XI56+vrc/1U7FCNj3OjwE0/BI9EZJVXW2FhHcN6p3mvDhGGtI0BCOBSHhKLdjYqR+WG5SiutBjOLgciWFP8pMPRcX2KVR2t6bgCL+ZA8vm8DQ4O2heffe7bCtz7AlBRLufuFzRuUDZ/YxX3dSZGqbnHdOUKpr+rfbqM1tJ7TexFvm+bNm6ynTt2ugHxgYEBVxzHEj7fk+iqThWmajcMUC9AJXBRt7RrBBqlhSFlqTxCDUgaoNJh+FvF03WIz7PPgQjWDJ6qs6rj0iEBCdKNg+ft7e22+cPNrkz+9ptv+XcqWzgtH6y3rVs+styej62rk9XOHvu677AdOnDQL3JC+mJQbc+u3bZvb4cd7O21Y9/028njJ2z4ypCf1mDllm9KDRYAhfpQBxxh+CxauhnKn6YrP+nylCewaiCApgFK+QhDWlbZkTZ3HIhgbcBbOjCeTgp4sPHa2tpqa9Zyy/Y6e/edJr/25g6AAAACPUlEQVTKAV3VT3OfOChPfHvcNWy40OmHse+Ti51Gx6y3Z7991fWlgzN/9pz9eO263frzLyvcnXK1uaxqAAzAgxdAqQtxOT0Thi79nE4L04nzrtBDC/Po9/XoSo/h3HEggjWDt+qQdF7ASohDA6i7u9uvq9zQ0uJSEkmJHSbAd+XS5ZpHUl6+eMkunr9go1e/s19++tmm7tx1YGLV4MG/95PFGVZvMUcS3LOTBRLVJRxABC5JwYymRNJLxIEI1tSfCVCQooQCQ5iFhR1sGWOV/+iRxHbwyNCwS9Ezp07b1eERB+5vv97wxafi/QeubVMplR2opeJ0otOqaS0SrZLsFfIe3gv4wkFC4FWdlI9npdWjhXVvFFdZCrPyKq1emMWvrHIi7f9xIII1g290Og41ABgczygUACKAjGIBC01//H7Tp7J3Jibdbi1ARnr+U7hn08WiVVgMKpVr+quoySXHuZJN/HJxuprGJn8yDQ2BEFYNeggG4tBCp/Q0PcyTFQ/fqXiYDxplR/d8ORDBWof/fCcCTEk4ncLRN6R33uqGPaBEYqJhIzoqcNBdl7WSrLC6Bg7fwAwAnMMsVfMDuuo0WGARQEIAKi2LRjOUXqdJdcn8rpH7L+U+raxG74lpjTkQwdqAPwAVwIYLOtAALOcoOaaFQ/UNcJZLiT1a9Fb5Li1z1A+phPI5U1stFnENpevTVfdvKatqRpPOLjDyG3mBIEwnjiePDxJBW5Q/ID1zVO9TyDvDOLyhLtHNDQeeAKymGTFJenmzAAAAAElFTkSuQmCC;" vertex="1" parent="1">
          <mxGeometry x="407.5" y="60" width="155" height="62" as="geometry" />
        </mxCell>
        <mxCell id="U0oxnOfSBaumcdSujKbc-6" style="edgeStyle=orthogonalEdgeStyle;rounded=0;orthogonalLoop=1;jettySize=auto;html=1;exitX=0;exitY=0.5;exitDx=0;exitDy=0;endArrow=none;endFill=0;" edge="1" parent="1" source="U0oxnOfSBaumcdSujKbc-3" target="U0oxnOfSBaumcdSujKbc-5">
          <mxGeometry relative="1" as="geometry">
            <Array as="points">
              <mxPoint x="280" y="170" />
              <mxPoint x="280" y="205" />
            </Array>
          </mxGeometry>
        </mxCell>
        <mxCell id="U0oxnOfSBaumcdSujKbc-14" value="" style="edgeStyle=orthogonalEdgeStyle;rounded=0;orthogonalLoop=1;jettySize=auto;html=1;startArrow=classicThin;startFill=1;endArrow=none;endFill=0;" edge="1" parent="1" source="U0oxnOfSBaumcdSujKbc-3" target="U0oxnOfSBaumcdSujKbc-2">
          <mxGeometry relative="1" as="geometry" />
        </mxCell>
        <mxCell id="U0oxnOfSBaumcdSujKbc-18" style="edgeStyle=orthogonalEdgeStyle;rounded=0;orthogonalLoop=1;jettySize=auto;html=1;exitX=0.5;exitY=1;exitDx=0;exitDy=0;entryX=0.5;entryY=0;entryDx=0;entryDy=0;" edge="1" parent="1" source="U0oxnOfSBaumcdSujKbc-3" target="U0oxnOfSBaumcdSujKbc-4">
          <mxGeometry relative="1" as="geometry" />
        </mxCell>
        <mxCell id="U0oxnOfSBaumcdSujKbc-3" value="感知目标传感器设备" style="rounded=0;whiteSpace=wrap;html=1;" vertex="1" parent="1">
          <mxGeometry x="370" y="150" width="230" height="40" as="geometry" />
        </mxCell>
        <mxCell id="U0oxnOfSBaumcdSujKbc-7" style="edgeStyle=orthogonalEdgeStyle;rounded=0;orthogonalLoop=1;jettySize=auto;html=1;exitX=0;exitY=0.5;exitDx=0;exitDy=0;endArrow=none;endFill=0;" edge="1" parent="1" source="U0oxnOfSBaumcdSujKbc-4">
          <mxGeometry relative="1" as="geometry">
            <mxPoint x="280" y="200" as="targetPoint" />
          </mxGeometry>
        </mxCell>
        <mxCell id="U0oxnOfSBaumcdSujKbc-19" value="" style="edgeStyle=orthogonalEdgeStyle;rounded=0;orthogonalLoop=1;jettySize=auto;html=1;" edge="1" parent="1" source="U0oxnOfSBaumcdSujKbc-4" target="U0oxnOfSBaumcdSujKbc-8">
          <mxGeometry relative="1" as="geometry" />
        </mxCell>
        <mxCell id="U0oxnOfSBaumcdSujKbc-4" value="目标进入UAV通信范围且被探测到" style="rounded=0;whiteSpace=wrap;html=1;" vertex="1" parent="1">
          <mxGeometry x="370" y="210" width="230" height="40" as="geometry" />
        </mxCell>
        <mxCell id="U0oxnOfSBaumcdSujKbc-5" value="飞行中" style="text;html=1;strokeColor=none;fillColor=none;align=center;verticalAlign=middle;whiteSpace=wrap;rounded=0;" vertex="1" parent="1">
          <mxGeometry x="210" y="190" width="60" height="30" as="geometry" />
        </mxCell>
        <mxCell id="U0oxnOfSBaumcdSujKbc-11" style="edgeStyle=orthogonalEdgeStyle;rounded=0;orthogonalLoop=1;jettySize=auto;html=1;exitX=0.5;exitY=1;exitDx=0;exitDy=0;entryX=1;entryY=0.5;entryDx=0;entryDy=0;" edge="1" parent="1" source="U0oxnOfSBaumcdSujKbc-8" target="U0oxnOfSBaumcdSujKbc-2">
          <mxGeometry relative="1" as="geometry">
            <Array as="points">
              <mxPoint x="485" y="340" />
              <mxPoint x="640" y="340" />
              <mxPoint x="640" y="91" />
            </Array>
          </mxGeometry>
        </mxCell>
        <mxCell id="U0oxnOfSBaumcdSujKbc-8" value="进行数据采集" style="rounded=0;whiteSpace=wrap;html=1;" vertex="1" parent="1">
          <mxGeometry x="370" y="280" width="230" height="40" as="geometry" />
        </mxCell>
        <mxCell id="U0oxnOfSBaumcdSujKbc-10" value="" style="edgeStyle=orthogonalEdgeStyle;rounded=0;orthogonalLoop=1;jettySize=auto;html=1;endArrow=none;endFill=0;" edge="1" parent="1" source="U0oxnOfSBaumcdSujKbc-9" target="U0oxnOfSBaumcdSujKbc-8">
          <mxGeometry relative="1" as="geometry" />
        </mxCell>
        <mxCell id="U0oxnOfSBaumcdSujKbc-9" value="悬停" style="text;html=1;strokeColor=none;fillColor=none;align=center;verticalAlign=middle;whiteSpace=wrap;rounded=0;" vertex="1" parent="1">
          <mxGeometry x="210" y="285" width="60" height="30" as="geometry" />
        </mxCell>
      </root>
    </mxGraphModel>
  </diagram>
</mxfile>
